<svg xmlns="http://www.w3.org/2000/svg"
     xmlns:xlink="http://www.w3.org/1999/xlink"
     style="display:none;">
  <symbol id="reload-icon" viewBox="0 0 25 26">
    <path d="M7,6a10,10,0,1,0,9,0" style="fill:none;stroke:black;stroke-width:2px"/>
    <line x1="17" y1="6.5" x2="17.5" y2="15" style="stroke:black;fill:none;stroke-width:2px"/>
    <line x1="16.5" y1="6.5" x2="26" y2="8" style="stroke:black;fill:none;stroke-width:2px"/>
  </symbol>
  <symbol id="check-mark">
    <path d="M21 6.285l-11.16 12.733-6.84-6.018 1.319-1.49 5.341 4.686 9.865-11.196 1.475 1.285z" style="fill:currentcolor;stroke:currentcolor;stroke-width:1px"/>
  </symbol>
  <symbol id="check-mark-thin">
    <path d="M24 4.685l-16.327 17.315-7.673-9.054.761-.648 6.95 8.203 15.561-16.501.728.685z"/>
  </symbol>
  <symbol id="check-mark-circle-thin">
    <path d="M12 0c6.623 0 12 5.377 12 12s-5.377 12-12 12-12-5.377-12-12 5.377-12 12-12zm0 1c6.071 0 11 4.929 11 11s-4.929 11-11 11-11-4.929-11-11 4.929-11 11-11zm7 7.457l-9.005 9.565-4.995-5.865.761-.649 4.271 5.016 8.24-8.752.728.685z"/>
  </symbol>
  <symbol id="x-mark">
    <path d="M23.954 21.03l-9.184-9.095 9.092-9.174-2.832-2.807-9.09 9.179-9.176-9.088-2.81 2.81 9.186 9.105-9.095 9.184 2.81 2.81 9.112-9.192 9.18 9.1z" style="fill:currentcolor;stroke:currentcolor;stroke-width:1px"/>
  </symbol>
  <symbol id="x-mark-thin">
    <path d="M12 11.293l10.293-10.293.707.707-10.293 10.293 10.293 10.293-.707.707-10.293-10.293-10.293 10.293-.707-.707 10.293-10.293-10.293-10.293.707-.707 10.293 10.293z"/>
  </symbol>
  <symbol id="x-mark-circle-thin">
    <path d="M12 0c6.623 0 12 5.377 12 12s-5.377 12-12 12-12-5.377-12-12 5.377-12 12-12zm0 1c6.071 0 11 4.929 11 11s-4.929 11-11 11-11-4.929-11-11 4.929-11 11-11zm0 10.293l5.293-5.293.707.707-5.293 5.293 5.293 5.293-.707.707-5.293-5.293-5.293 5.293-.707-.707 5.293-5.293-5.293-5.293.707-.707 5.293 5.293z"/>
  </symbol>
</svg>
